HIERARCHY
ROOT Hips
{
  OFFSET 3.13124 94.3669 -3.18751
  CHANNELS  6 Xposition Yposition Zposition Zrotation Xrotation Yrotation
  JOINT LeftUpLeg
  {
    OFFSET 8.64259 1.95398 -2.38835
    CHANNELS 3 Zrotation Xrotation Yrotation
    JOINT LeftLeg
    {
      OFFSET 43.7702 0 0
      CHANNELS 3 Zrotation Xrotation Yrotation
      JOINT LeftFoot
      {
        OFFSET 40.6238 0 0
        CHANNELS 3 Zrotation Xrotation Yrotation
        JOINT LeftToeBase
        {
          OFFSET 12.7242 0 0
          CHANNELS 3 Zrotation Xrotation Yrotation
          End Site
          {
            OFFSET 0 0 0
          }
        }
      }
    }
  }
  JOINT RightUpLeg
  {
    OFFSET -8.2249 1.95398 -2.59336
    CHANNELS 3 Zrotation Xrotation Yrotation
    JOINT RightLeg
    {
      OFFSET 43.5653 0 0
      CHANNELS 3 Zrotation Xrotation Yrotation
      JOINT RightFoot
      {
        OFFSET 40.6238 0 0
        CHANNELS 3 Zrotation Xrotation Yrotation
        JOINT RightToeBase
        {
          OFFSET 12.7242 0 0
          CHANNELS 3 Zrotation Xrotation Yrotation
          End Site
          {
            OFFSET 0 0 0
          }
        }
      }
    }
  }
  JOINT Spine
  {
    OFFSET 0.165834 0.87714 6.61349
    CHANNELS 3 Zrotation Xrotation Yrotation
    JOINT Spine1
    {
      OFFSET 7.38962 1.71661e-005 0
      CHANNELS 3 Zrotation Xrotation Yrotation
      JOINT Spine2
      {
        OFFSET 11.9445 1.14441e-005 0
        CHANNELS 3 Zrotation Xrotation Yrotation
        JOINT Spine3
        {
          OFFSET 14.7254 4.19617e-005 0
          CHANNELS 3 Zrotation Xrotation Yrotation
          JOINT Spine4
          {
            OFFSET 10.9679 0 0
            CHANNELS 3 Zrotation Xrotation Yrotation
            JOINT RightShoulder
            {
              OFFSET 2.46616 -1.6653 3.69651
              CHANNELS 3 Zrotation Xrotation Yrotation
              JOINT RightArm
              {
                OFFSET 13.0012 0 0
                CHANNELS 3 Zrotation Xrotation Yrotation
                JOINT RightForeArm
                {
                  OFFSET 28.7848 1.52588e-005 0
                  CHANNELS 3 Zrotation Xrotation Yrotation
                  JOINT RightHand
                  {
                    OFFSET 26.5688 1.52588e-005 0
                    CHANNELS 3 Zrotation Xrotation Yrotation
                    End Site
                    {
                      OFFSET 0 0 0
                    }
                  }
                }
              }
            }
            JOINT LeftShoulder
            {
              OFFSET 2.38034 -1.29275 -3.75231
              CHANNELS 3 Zrotation Xrotation Yrotation
              JOINT LeftArm
              {
                OFFSET 16.3182 6.10352e-005 0
                CHANNELS 3 Zrotation Xrotation Yrotation
                JOINT LeftForeArm
                {
                  OFFSET 27.0901 0 0
                  CHANNELS 3 Zrotation Xrotation Yrotation
                  JOINT LeftHand
                  {
                    OFFSET 24.5451 1.52588e-005 0
                    CHANNELS 3 Zrotation Xrotation Yrotation
                    End Site
                    {
                      OFFSET 0 0 0
                    }
                  }
                }
              }
            }
            JOINT Neck
            {
              OFFSET 5.0226 -0.0266342 0
              CHANNELS 3 Zrotation Xrotation Yrotation
              JOINT Head
              {
                OFFSET 6.69363 2.86102e-005 0
                CHANNELS 3 Zrotation Xrotation Yrotation
                End Site
                {
                  OFFSET 0 0 0
                }
              }
            }
          }
        }
      }
    }
  }
}
MOTION
Frames:	15
Frame Time:	0.0333333
-26.9192 87.4827 -12.4695 57.3888 -17.6968 77.245 -170.388 37.4017 113.047 -33.0286 0.705556 3.65883 43.0159 -17.6493 -15.6418 28.7808 6.10442e-006 7.96766e-006 -179.506 68.3778 88.1492 -50.7717 -8.15042 -0.888386 68.3369 0.0043189 0.00134268 28.7808 1.55698e-005 2.52602e-005 -2.33692 10.5566 -87.5355 5.77741 -3.14774 4.22297 -5.89704 -2.959 4.35715 -28.4298 -4.27079 3.08251 -8.41719 -4.27076 3.08252 101.609 -23.6448 -83.368 49.1132 -24.013 19.3607 10.8882 -7.45768 -57.8005 -5.37983 -0.320016 -0.0162403 -82.1379 -34.8816 89.1206 -34.3989 -18.7684 2.55246 3.00353 44.4734 -6.21308 13.6927 -1.83945 -16.707 -17.1442 1.92485 -26.8527 -1.89005 1.63083 7.81496 
-26.2566 88.6505 -12.3359 56.8677 -20.7273 75.5132 -171.503 38.4006 111.416 -34.4633 1.38137 4.16504 45.3996 -12.5191 -10.8264 28.7808 6.10442e-006 7.96766e-006 179.839 65.9447 89.1536 -46.8807 -11.1372 -0.978385 67.5764 1.69473 0.912386 28.7808 1.55698e-005 2.52602e-005 -2.34584 10.4916 -87.4065 5.89062 -3.00787 4.02817 -5.7835 -2.8278 4.15644 -28.3166 -4.07889 2.93864 -8.30396 -4.0789 2.93866 101.031 -23.8644 -84.6793 49.6539 -18.5686 17.3696 13.5847 -7.61777 -51.2211 -5.37983 -0.320016 -0.0162403 -82.9042 -36.6344 87.9481 -33.8192 -19.3089 0.974444 3.09218 45.9802 -5.93148 13.4992 -1.22401 -12.4561 -18.6258 3.16759 -25.8709 -2.41263 2.52746 8.05648 
-25.5898 89.5484 -12.4345 56.022 -23.3897 74.0873 -173.032 39.3779 110.049 -34.3756 0.993035 5.3157 49.0329 -9.79529 -8.00851 28.7808 6.10442e-006 7.96766e-006 179.43 64.0552 89.946 -43.3679 -13.2874 -1.0356 66.7894 3.08686 1.69088 28.7808 1.55698e-005 2.52602e-005 -2.09996 10.4862 -87.5502 5.8995 -2.67297 3.77219 -5.77451 -2.50448 3.88601 -28.3048 -3.68266 2.7951 -8.29213 -3.68266 2.7951 101.529 -25.4658 -83.4955 49.2313 -14.0289 14.8368 15.6404 -7.39215 -45.0338 -5.37983 -0.320016 -0.0162403 -83.9291 -36.7249 86.1359 -34.8311 -19.5557 -1.81851 2.9594 49.0834 -3.21898 15.3142 -2.28599 -18.4466 -19.1199 3.57169 -27.2124 -3.05918 2.72917 9.80473 
-24.9299 90.254 -12.6017 55.0446 -25.6504 73.0864 -173.566 40.2984 109.597 -32.6169 -3.2214 3.65862 53.2983 -6.13807 -4.72155 28.7808 6.10442e-006 7.96766e-006 178.981 62.6905 90.9951 -40.4856 -14.3771 -1.05617 65.5135 3.81321 2.16385 28.7808 1.55698e-005 2.52602e-005 -1.89555 10.4487 -87.8862 5.98783 -2.61933 3.61351 -5.68583 -2.45787 3.72514 -28.2177 -3.58386 2.6598 -8.20505 -3.58386 2.65978 101.293 -26.988 -83.9614 49.3826 -9.78418 12.1027 16.9382 -6.72659 -38.9045 -5.37983 -0.320016 -0.0162403 -84.0278 -36.7415 85.9629 -35.4493 -19.1068 -5.03566 3.46664 54.2306 -1.80899 12.4366 -2.26572 -21.0015 -19.9053 4.38455 -27.2635 -4.09079 3.26832 10.8786 
-24.2457 90.9287 -12.721 54.5368 -28.2291 71.8711 -174.357 40.9195 108.756 -32.0428 -3.01819 4.07154 55.4607 -3.79441 -2.90022 28.7808 6.10442e-006 7.96766e-006 178.667 60.6413 91.9766 -37.4302 -15.0606 -1.05431 64.3289 3.85684 2.26883 28.7808 1.55698e-005 2.52602e-005 -1.75997 10.4496 -88.0528 5.99164 -2.55017 3.53574 -5.6819 -2.3922 3.6444 -28.2137 -3.49455 2.60637 -8.20101 -3.49457 2.60635 100.924 -27.8536 -84.7146 50.0336 -6.7466 9.99157 17.0497 -5.93412 -34.5949 -5.37983 -0.320016 -0.0162403 -83.6345 -36.92 86.688 -36.7753 -19.4808 -9.77103 4.74754 58.4757 0.0733377 10.3731 -2.66722 -27.1208 -20.783 5.11334 -26.3307 -4.83033 3.77657 11.0684 
-23.7102 91.6424 -12.8859 53.391 -30.4725 70.1978 -175.189 43.44 108.275 -33.5404 0.31416 4.46641 54.6671 -1.26234 -1.25588 28.7808 6.10442e-006 7.96766e-006 178.503 59.3374 92.7487 -34.4757 -16.1745 -1.08062 62.1868 2.74784 1.7709 28.7808 1.55698e-005 2.52602e-005 -1.7111 10.3831 -88.0538 6.12274 -2.4488 3.51341 -5.55094 -2.29188 3.61765 -28.081 -3.39117 2.61558 -8.06839 -3.39116 2.61559 100.817 -29.3515 -84.8663 50.3598 -4.02226 7.57661 16.7675 -5.16871 -30.6235 -5.37983 -0.320016 -0.0162403 -83.8516 -36.8151 86.287 -40.3082 -21.7151 -14.8417 10.3415 68.2078 0.0419241 10.6076 -2.61291 -26.2703 -21.7005 5.81877 -25.8757 -5.41801 4.25169 11.3648 
-22.9871 92.2429 -13.0767 53.2369 -32.5156 68.825 -175.504 43.9576 107.281 -33.0565 4.39364 5.24918 55.5748 -2.84306 -2.26033 28.7808 6.10442e-006 7.96766e-006 178.747 57.1221 92.5862 -31.6916 -18.288 -1.17984 60.9818 2.11803 1.47221 28.7808 1.55698e-005 2.52602e-005 -1.61369 10.3869 -88.1515 6.12079 -2.43633 3.57092 -5.55308 -2.2769 3.67455 -28.082 -3.39653 2.67424 -8.06932 -3.39651 2.67423 100.645 -30.6739 -85.1505 51.0135 -1.31396 5.28911 15.8126 -4.25027 -27.112 -5.37983 -0.320016 -0.0162403 -85.0984 -36.4976 84.0188 -41.0398 -22.8805 -18.1491 13.0823 74.1548 0.071812 11.4566 -2.92819 -27.4855 -22.7022 6.3709 -25.3088 -6.47135 4.5224 11.6623 
-22.1881 92.8729 -13.3328 52.9006 -34.0733 67.5602 -175.863 44.3004 106.214 -31.3815 7.85429 5.80477 56.1044 -4.12092 -3.05491 28.7808 6.10442e-006 7.96766e-006 179.021 54.966 92.2595 -28.5822 -19.9039 -1.26219 59.6387 1.29612 1.05134 28.7808 1.55698e-005 2.52602e-005 -1.5465 10.4074 -88.3132 6.08945 -2.57625 3.61286 -5.58427 -2.41484 3.72258 -28.1153 -3.54256 2.67215 -8.10263 -3.54256 2.67213 100.639 -32.4185 -85.0739 51.2882 0.459448 2.16999 14.7463 -3.44773 -23.9853 -5.37983 -0.320016 -0.0162403 -85.7611 -36.0088 82.7462 -41.4764 -22.9816 -21.998 13.9388 78.9928 0.111165 14.7622 -2.82832 -22.4173 -22.8668 6.92935 -24.7724 -7.82081 4.94546 12.1718 
-21.2975 93.5089 -13.6221 52.6001 -35.6011 66.4838 -176.095 44.108 105.371 -28.9546 13.2172 6.89278 54.8809 -8.80268 -6.30569 28.7808 6.10442e-006 7.96766e-006 179.22 52.7702 92.0297 -25.4762 -21.2614 -1.30838 57.9179 0.613084 0.716394 28.7808 1.55698e-005 2.52602e-005 -1.45193 10.4925 -88.5581 5.93529 -2.81914 3.70179 -5.7382 -2.65362 3.82211 -28.2729 -3.80095 2.68388 -8.26023 -3.80093 2.68389 100.707 -34.279 -84.8501 52.0015 2.56342 -1.40954 12.56 -2.72179 -22.1972 -5.37983 -0.320016 -0.0162403 -84.6302 -35.2084 84.6296 -43.4656 -21.8518 -28.0767 14.4845 84.5345 0.232134 18.0121 -1.42975 -11.7811 -21.1919 7.20568 -24.5251 -10.766 5.26883 12.7807 
-20.3568 94.2413 -13.9538 52.1313 -37.064 65.3197 -175.981 43.8419 104.042 -25.8506 13.6195 5.8441 55.092 -4.80938 -3.56994 28.7808 6.10442e-006 7.96766e-006 179.53 49.0754 91.5913 -19.1569 -22.6712 -1.28993 55.7463 0.918321 1.04296 28.7808 1.55698e-005 2.52602e-005 -1.32079 10.4162 -88.7733 6.09801 -2.92412 3.72995 -5.57537 -2.75727 3.85487 -28.1119 -3.9095 2.67915 -8.09923 -3.90951 2.67914 100.434 -36.444 -85.2644 51.9814 5.32649 -3.90742 10.5369 -2.11151 -20.2599 -5.37983 -0.320016 -0.0162403 -86.5888 -34.2044 80.8686 -42.9625 -22.7999 -29.4145 14.9816 87.7235 0.564685 19.4643 -1.18448 -10.0388 -22.9895 7.85954 -23.6131 -10.6603 5.63989 12.6999 
-19.37 94.8005 -14.2816 51.8103 -38.2243 64.1665 -175.994 43.922 102.363 -23.4809 15.0066 5.5435 53.7696 -4.23977 -3.29409 28.7808 6.10442e-006 7.96766e-006 179.783 44.1902 90.8901 -10.4328 -24.2317 -1.35698 52.5317 1.75249 1.80459 28.7808 1.55698e-005 2.52602e-005 -1.36017 10.3606 -88.8141 6.21378 -3.07058 3.71207 -5.45922 -2.90436 3.84344 -27.9994 -4.04381 2.61793 -7.98678 -4.04383 2.61793 100.234 -38.6703 -85.5146 51.7827 7.49584 -6.71952 8.54935 -1.64795 -19.1072 -5.37983 -0.320016 -0.0162403 -87.3185 -32.9399 79.2228 -42.5685 -21.9532 -31.5262 14.9078 87.8646 0.59708 17.5912 -1.53252 -12.5362 -24.0428 8.35092 -22.9313 -10.9279 5.92711 13.1216 
-18.3208 95.0452 -14.5919 51.8128 -38.941 63.2741 -175.919 43.9212 100.494 -21.2778 14.3066 4.6707 53.1164 -4.42001 -3.46902 28.7808 6.10442e-006 7.96766e-006 179.66 43.1553 90.1214 -9.67477 -25.4866 -1.42413 52.6962 1.49904 1.59014 28.7808 1.55698e-005 2.52602e-005 -1.48242 10.3194 -88.8047 6.30051 -3.2694 3.68459 -5.37195 -3.10417 3.82474 -27.9174 -4.22518 2.53174 -7.90473 -4.22521 2.53173 99.8238 -40.6744 -86.133 51.6123 9.30027 -9.48262 6.67245 -1.22791 -18.0783 -5.37983 -0.320016 -0.0162403 -87.3649 -30.5102 78.4985 -41.2999 -18.8591 -33.0753 -165.714 89.0279 178.719 14.1182 -1.08799 -11.2505 -24.3932 8.63068 -23.1024 -12.154 5.93759 13.9332 
-17.2428 95.3504 -14.9015 52.195 -39.5136 62.8216 -175.692 43.9266 98.6833 -19.6071 11.1181 3.13042 51.7782 -3.82064 -3.17098 28.7808 6.10442e-006 7.96766e-006 179.533 41.5531 89.2828 -8.1404 -26.1243 -1.4527 52.5298 2.05952 1.95177 28.7808 1.55698e-005 2.52602e-005 -1.6721 10.2753 -88.7355 6.38495 -3.41039 3.51722 -5.28669 -3.25239 3.66379 -27.8382 -4.30941 2.32944 -7.82559 -4.30941 2.32943 99.1797 -42.1305 -87.1561 51.3854 10.8482 -12.0903 5.01199 -0.879111 -17.0608 -5.37983 -0.320016 -0.0162403 -87.6604 -28.3455 77.3084 -43.3949 -17.0727 -34.4374 -165.988 84.1822 179.793 12.9249 -0.901777 -10.4144 -25.0985 8.79469 -22.881 -12.652 5.9426 13.8182 
-16.0864 95.7207 -15.2845 52.7221 -40.214 62.7741 -175.351 43.6181 97.1157 -18.4966 6.68694 1.29165 50.7508 -1.49841 -1.58182 28.7808 6.10442e-006 7.96766e-006 179.42 39.6433 88.6569 -6.22442 -26.2962 -1.45405 51.9004 2.51647 2.25961 28.7808 1.55698e-005 2.52602e-005 -1.85031 10.2449 -88.6507 6.43379 -3.42982 3.24271 -5.23706 -3.28384 3.39046 -27.793 -4.24549 2.06153 -7.78037 -4.24548 2.06153 98.4814 -43.1521 -88.2678 50.8826 11.8668 -14.5319 3.84738 -0.652186 -16.3112 -5.37983 -0.320016 -0.0162403 -87.7723 -25.9265 76.3333 -45.5667 -14.7129 -36.2447 -166.16 86.5871 179.662 14.7296 -0.647382 -8.27069 -25.5613 8.81536 -23.023 -13.1667 5.77529 14.1356 
-14.8656 96.0056 -15.7479 53.1876 -40.7207 62.8947 -175.203 42.7844 95.7322 -17.2308 0.466797 -0.507648 50.2715 1.44643 0.562303 28.7808 6.10442e-006 7.96766e-006 179.262 38.3583 88.0211 -5.20098 -26.2501 -1.44715 51.4143 3.30046 2.8251 28.7808 1.55698e-005 2.52602e-005 -1.87512 10.188 -88.7495 6.53921 -3.39414 2.86803 -5.13078 -3.26467 3.01461 -27.6905 -4.09891 1.71466 -7.67786 -4.09891 1.71465 97.8291 -43.548 -89.3337 50.1046 12.6719 -16.761 3.02367 -0.47766 -15.4278 -5.37983 -0.320016 -0.0162403 -87.655 -23.6467 75.8158 -48.2084 -12.2914 -38.1628 -162.987 89.4857 177.856 0.857636 -0.428124 -15.3104 -25.8535 8.52443 -23.2044 -13.4797 5.38677 13.9092 
